<svg xmlns="http://www.w3.org/2000/svg" width="256" height="256" viewBox="0 0 256 256"><path fill="#181717" d="M128 0C57.31 0 0 57.31 0 128c0 56.55 36.67 104.54 87.53 121.47c6.4 1.18 8.74-2.77 8.74-6.15c0-3.03-.12-13.13-.18-24.84c-35.6 7.74-43.12-15.28-43.12-15.28c-5.82-14.78-14.2-18.72-14.2-18.72c-11.6-7.93.88-7.77.88-7.77c12.83.9 19.6 13.18 19.6 13.18c11.4 19.53 29.88 13.88 37.15 10.6c1.15-8.24 4.45-13.88 8.12-17.06c-28.34-3.23-58.14-14.18-58.14-63.08c0-13.94 5-25.35 13.17-34.29C49.9 82.2 45.1 67.8 52.03 51.04c0 0 10.7-3.43 35.08 13.12A122.13 122.13 0 0 1 128 60.8c12.2.03 24.34 1.63 35.89 4.38c24.37-16.55 35.05-13.12 35.05-13.12c6.95 16.76 2.15 31.16.5 34.02c8.18 8.94 13.15 20.35 13.15 34.29c0 49.03-29.83 59.82-58.28 63c4.58 3.94 8.65 11.72 8.65 23.62c0 17.07-.15 30.84-.15 35.02c0 3.4.2.33 7.37 8.77c6.18 0 51.86-44.89 87.5-121.4C219.34 164.54 256 106.55 256 128C256 57.31 198.69 0 128 0Z"/></svg>