<svg xmlns="http://www.w3.org/2000/svg" width="256" height="256" viewBox="0 0 256 256"><path fill="#4285F4" d="M211.82 50.91h-39.64v-13.2h-33v13.2h-46.2v-13.2h-33v13.2H18.18v187.27h219.64V50.91zM79.18 64.11h33V77.3h-33zm0 0h33v13.19h-33zm115.64 160.86H62.18V99.9h132.64zm-13.2-115.63h33v13.19h-33Z"/><path fill="#34A853" d="m170.8 142.04l-31.1 27.24l-14.88-14.88l-9.33 9.33l24.21 24.21l40.43-35.39z"/><path fill="#4285F4" d="M125.38 37.71h-33v13.2h33z"/><path fill="#FBBC05" d="M225 197.82v-25.04l-25.02 25.04z"/><path fill="#4285F4" d="m225 50.91l-25.02 25.02h25.02z"/><path fill="#EA4335" d="M62.18 99.9h13.2v13.19h-13.2zm0 26.39h13.2v13.19h-13.2zm0 26.39h13.2v13.19h-13.2z"/><g><path fill="#FBBC05" d="M88.57 99.9h13.2v13.19h-13.2zm0 26.39h13.2v13.19h-13.2zm0 26.39h13.2v13.19h-13.2z"/><path fill="#4285F4" d="M114.96 99.9h13.2v13.19h-13.2zm0 26.39h13.2v13.19h-13.2z"/><path fill="#34A853" d="M141.35 99.9h13.2v13.19h-13.2z"/></g></svg>