<svg xmlns="http://www.w3.org/2000/svg" width="256" height="256" viewBox="0 0 256 256"><path fill="#36C5F0" d="M98.8 77.4c0-11.8-9.6-21.4-21.4-21.4S56 65.6 56 77.4v50.2c0 11.8 9.6 21.4 21.4 21.4s21.4-9.6 21.4-21.4V98.8H77.4c-11.8 0-21.4-9.6-21.4-21.4S65.6 56 77.4 56h50.2c11.8 0 21.4 9.6 21.4 21.4s-9.6 21.4-21.4 21.4h-21.4v28.4c0 11.8 9.6 21.4 21.4 21.4S178 139.6 178 127.8v-50.2c0-11.8-9.6-21.4-21.4-21.4S135.2 65.6 135.2 77.4v21.4h21.4c11.8 0 21.4 9.6 21.4 21.4S168.4 141.6 156.6 141.6h-50.2c-11.8 0-21.4-9.6-21.4-21.4s9.6-21.4 21.4-21.4h21.4V77.4Z"/><path fill="#2EB67D" d="M178.6 98.8c11.8 0 21.4-9.6 21.4-21.4S190.4 56 178.6 56h-50.2c-11.8 0-21.4 9.6-21.4 21.4s9.6 21.4 21.4 21.4h21.4v28.4c0 11.8-9.6 21.4-21.4 21.4S107 139.6 107 127.8v-50.2c0-11.8 9.6-21.4 21.4-21.4S150 65.6 150 77.4v21.4h-21.4c-11.8 0-21.4 9.6-21.4 21.4S116.8 141.6 128.6 141.6h50.2c11.8 0 21.4-9.6 21.4-21.4S190.4 98.8 178.6 98.8Z"/><path fill="#ECB22E" d="M157.2 178.6c0 11.8 9.6 21.4 21.4 21.4S200 190.4 200 178.6v-50.2c0-11.8-9.6-21.4-21.4-21.4S157.2 116.8 157.2 128.2v21.4h21.4c11.8 0 21.4 9.6 21.4 21.4S190.4 192.4 178.6 192.4h-50.2c-11.8 0-21.4-9.6-21.4-21.4S116.8 149.6 128.2 149.6h21.4v-28.4c0-11.8-9.6-21.4-21.4-21.4S107 110 107 121.8v50.2c0 11.8 9.6 21.4 21.4 21.4S150 190.4 150 178.6v-21.4h-21.4c-11.8 0-21.4-9.6-21.4-21.4S116.8 114.4 128.2 114.4h50.2c11.8 0 21.4 9.6 21.4 21.4S190.4 157.2 178.6 157.2h-21.4v21.4Z"/><path fill="#E01E5A" d="M77.4 157.2c-11.8 0-21.4 9.6-21.4 21.4S65.6 200 77.4 200h50.2c11.8 0 21.4-9.6 21.4-21.4S140.4 157.2 127.8 157.2H107v-28.4c0-11.8 9.6-21.4 21.4-21.4S150 116.8 150 128.2v50.2c0 11.8-9.6 21.4-21.4 21.4S107 190.4 107 178.6v-21.4H85.6c-11.8 0-21.4-9.6-21.4-21.4S73.8 114.4 85.6 114.4h50.2c11.8 0 21.4 9.6 21.4 21.4S148.2 157.2 135.8 157.2H77.4Z"/></svg>